<svg id="Layer_1" data-name="Layer 1" xmlns="http://www.w3.org/2000/svg" viewBox="0 0 110 107.28"><defs><style>.cls-1{fill-rule:evenodd;}</style></defs><title>github</title><path class="cls-1" d="M57.5,4.53A55,55,0,0,0,40.12,111.72c2.75.5,3.75-1.2,3.75-2.65s0-4.77-.08-9.36C28.5,103,25.27,92.34,25.27,92.34c-2.5-6.36-6.11-8-6.11-8-5-3.41.38-3.34.38-3.34,5.52.39,8.42,5.67,8.42,5.67,4.91,8.4,12.88,6,16,4.57a11.78,11.78,0,0,1,3.49-7.36c-12.21-1.38-25-6.1-25-27.18a21.27,21.27,0,0,1,5.66-14.76c-.57-1.39-2.45-7,.54-14.55,0,0,4.62-1.48,15.12,5.64a51.9,51.9,0,0,1,27.54,0c10.5-7.12,15.11-5.64,15.11-5.64,3,7.57,1.12,13.16.55,14.55a21.26,21.26,0,0,1,5.65,14.76c0,21.13-12.86,25.78-25.11,27.14,2,1.7,3.73,5.06,3.73,10.19,0,7.35-.06,13.28-.06,15.09,0,1.47,1,3.18,3.78,2.64A55,55,0,0,0,57.5,4.53Z" transform="translate(-2.5 -4.53)"/></svg>